<svg id="Layer_1" data-name="Layer 1" xmlns="http://www.w3.org/2000/svg" viewBox="0 0 1000 1000"><defs><style>.cls-1{fill:#d6d9db;}.cls-2{fill:#231f20;}.cls-3{fill:#349999;}</style></defs><path class="cls-1" d="M267.63,604.78H86.91a14.42,14.42,0,0,1-14.43-14.43V409.65a14.43,14.43,0,0,1,14.43-14.43H267.63a14.43,14.43,0,0,1,14.42,14.43v180.7A14.42,14.42,0,0,1,267.63,604.78Z"/><path class="cls-1" d="M267.63,907H86.91A14.43,14.43,0,0,1,72.48,892.6V711.88a14.43,14.43,0,0,1,14.43-14.43H267.63a14.43,14.43,0,0,1,14.42,14.43V892.6A14.43,14.43,0,0,1,267.63,907Z"/><path class="cls-1" d="M267.63,302.55H86.91a14.43,14.43,0,0,1-14.43-14.43V107.41A14.43,14.43,0,0,1,86.91,93H267.63a14.43,14.43,0,0,1,14.42,14.43V288.12A14.43,14.43,0,0,1,267.63,302.55Z"/><path class="cls-1" d="M389.17,395.19H883.76a14.45,14.45,0,0,1,14.45,14.45V590.33a14.45,14.45,0,0,1-14.45,14.45H389.17a14.46,14.46,0,0,1-14.46-14.46V409.65A14.45,14.45,0,0,1,389.17,395.19Z"/><path class="cls-1" d="M898.22,711.89V892.6A14.43,14.43,0,0,1,883.8,907H374.73V697.46H883.8A14.43,14.43,0,0,1,898.22,711.89Z"/><path class="cls-1" d="M898.22,93V302.54H389.16a14.42,14.42,0,0,1-14.43-14.43V107.4A14.42,14.42,0,0,1,389.16,93Z"/><path class="cls-2" d="M898.22,93V302.54h-20a137,137,0,0,0-137,137v101C741.25,742.93,577.16,907,374.73,907V697.46h20a137,137,0,0,0,137-137v-101C531.7,257.08,695.8,93,898.22,93Z"/><path class="cls-3" d="M898.22,93V302.54h-20a137,137,0,0,0-137,137v101C741.25,742.93,577.16,907,374.73,907V697.46h20a137,137,0,0,0,137-137v-101C531.7,257.08,695.8,93,898.22,93Z"/></svg>