<svg id="Layer_1" data-name="Layer 1" xmlns="http://www.w3.org/2000/svg" viewBox="0 0 2020 1000"><defs><style>.cls-1{fill:#d6d9db;}.cls-2{fill:#349999;}</style></defs><path class="cls-1" d="M523.47,545.06H445.76a6.21,6.21,0,0,1-6.21-6.2V461.15a6.21,6.21,0,0,1,6.21-6.21h77.71a6.21,6.21,0,0,1,6.2,6.21v77.71A6.21,6.21,0,0,1,523.47,545.06Z"/><path class="cls-1" d="M523.47,675H445.76a6.21,6.21,0,0,1-6.21-6.2V591.11a6.21,6.21,0,0,1,6.21-6.2h77.71a6.21,6.21,0,0,1,6.2,6.2v77.72A6.21,6.21,0,0,1,523.47,675Z"/><path class="cls-1" d="M523.47,415.09H445.76a6.21,6.21,0,0,1-6.21-6.2V331.17a6.21,6.21,0,0,1,6.21-6.2h77.71a6.21,6.21,0,0,1,6.2,6.2v77.72A6.21,6.21,0,0,1,523.47,415.09Z"/><path class="cls-1" d="M575.73,454.94H637v90.12h-61.3a6.19,6.19,0,0,1-6.2-6.2V461.14A6.19,6.19,0,0,1,575.73,454.94Z"/><path class="cls-1" d="M794.64,461.14v77.72a6.2,6.2,0,0,1-6.2,6.2h-61.3V454.94h61.3A6.2,6.2,0,0,1,794.64,461.14Z"/><path class="cls-1" d="M794.64,591.12v77.71a6.21,6.21,0,0,1-6.2,6.2H569.53V584.92H788.44A6.2,6.2,0,0,1,794.64,591.12Z"/><path class="cls-1" d="M794.64,325v90.12H575.73a6.2,6.2,0,0,1-6.2-6.21V331.17a6.2,6.2,0,0,1,6.2-6.2Z"/><path class="cls-2" d="M794.64,325v90.12H786A58.9,58.9,0,0,0,727.14,474v43.43A157.61,157.61,0,0,1,569.53,675V584.92h8.6A58.91,58.91,0,0,0,637,526V482.59A157.61,157.61,0,0,1,794.64,325Z"/><path class="cls-2" d="M1094.68,538.71c2.72,10.41,10.22,16.61,23,16.61,14.14,0,19.8-6.35,19.8-15.18,0-9-4.07-13.37-22.1-17.73-23.37-5.65-28.72-12.76-28.72-24.3,0-12.06,9-23.56,29.71-23.56s30,12.36,31.26,24.51h-11.27c-1.41-6.48-6.44-14.91-20.47-14.91-13.69,0-17.67,6.69-17.67,13,0,7.26,3.87,10.88,20.38,14.86,25.19,6,30.86,14.33,30.86,27.23,0,15.44-12.42,25.74-32.08,25.74-20.91,0-31.92-10.79-34.24-26.29Z"/><rect class="cls-1" x="906.79" y="436.72" width="11.5" height="126.22"/><path class="cls-1" d="M935.78,436.72h11.5v17.61h-11.5Zm0,39.89h11.5v86.33h-11.5Z"/><path class="cls-1" d="M972.71,538.71c2.73,10.41,10.23,16.61,23,16.61,14.15,0,19.8-6.35,19.8-15.18,0-9-4.06-13.37-22.09-17.73-23.37-5.65-28.73-12.76-28.73-24.3,0-12.06,9-23.56,29.71-23.56s30,12.36,31.27,24.51h-11.28c-1.4-6.48-6.43-14.91-20.46-14.91-13.69,0-17.68,6.69-17.68,13,0,7.26,3.87,10.88,20.39,14.86,25.18,6,30.85,14.33,30.85,27.23,0,15.44-12.42,25.74-32.08,25.74-20.91,0-31.92-10.79-34.23-26.29Z"/><path class="cls-1" d="M1031.25,476.61h15.54V450.34h11.49v26.27h19.87v10h-19.87v53.59c0,9.08,2.06,14.05,10.13,14.05a32.92,32.92,0,0,0,8.32-.89v9.25c-3.28,1.29-7.86,1.57-11.71,1.57-12.14,0-18.23-6.18-18.23-20.23V486.57h-15.54Z"/><path class="cls-1" d="M1174.91,436.72V490.3c4.65-8.34,12.83-15.75,27.79-15.75,13,0,29.13,6.84,29.13,33.39v55h-11.46V510c0-16-7.06-25-20.59-25-16.38,0-24.87,10.41-24.87,30.16v47.73h-11.49V436.72Z"/><path class="cls-1" d="M1312.66,537.75c0,8.44.14,21.08.17,25.19H1301.7a135.48,135.48,0,0,1-.54-14.07c-3.9,9.9-12.49,16.13-27,16.13-13.4,0-28.41-5.93-28.41-31.41v-57h11.35V531c0,12,3.78,23.46,19.61,23.46,17.75,0,24.49-9.92,24.49-33.19V476.61h11.5Z"/><path class="cls-1" d="M1349.57,486.57v76.37h-11.49V486.57h-14.43v-10h14.43V465.49c0-15.42,4.14-30.49,23.65-30.49,2.85,0,6,.23,8.11,1.2v10.07a27,27,0,0,0-7.77-1.08c-9,0-12.5,6-12.5,19.28v12.14h33.19V465.49c0-15.42,4.46-30.49,23.66-30.49,2.85,0,6,.23,8.11,1.2v10.07a27.13,27.13,0,0,0-7.77-1.08c-9.06,0-12.5,6-12.5,19.28v12.14h17.68v10h-17.68v76.37h-11.5V486.57Z"/><rect class="cls-1" x="1425.89" y="436.72" width="11.49" height="126.22"/><path class="cls-1" d="M1460.32,521.57c.15,20.13,10.28,33.33,26,33.33,15,0,20.08-8.18,23-14.92H1521c-3.53,11.24-12.73,25-35.07,25-26.65,0-37.24-22.37-37.24-44.43,0-25.14,12.56-46,38.24-46,27.17,0,35.93,22.68,35.93,39.91,0,2.51,0,4.83-.19,7.11Zm50.73-8.92c-.17-15.78-8.5-28.31-24.43-28.31-16.6,0-24.06,11.59-25.78,28.31Z"/><path class="cls-1" d="M1536.7,500.08c0-13.4-.15-19.87-.18-23.47h11.27c.21,2.6.4,8.7.4,18.55,4.78-12.37,15.49-20,29.6-20.61V486.4c-17.84.9-29.6,11.87-29.6,33v43.53H1536.7Z"/><rect class="cls-1" x="1568.62" y="539.35" width="11.82" height="23.59"/></svg>