<?xml version="1.0" encoding="UTF-8" standalone="no"?>
<svg
   id="Layer_1"
   data-name="Layer 1"
   viewBox="0 0 1182.2937 350.06"
   version="1.1"
   xmlnsSvg="http://www.w3.org/2000/svg"
   width="1182.2937"
   height="350.06"
   xmlns="http://www.w3.org/2000/svg">
  <defs
     id="defs246">
    <rect
       x="1588.0389"
       y="842.41351"
       width="125.46584"
       height="125.46584"
       id="rect11035" />
    <style
       id="style244">.cls-1{fill:#d6d9db;}.cls-2{fill:#349999;}.cls-3{fill:#37383a;}</style>
  </defs>
  <path
     class="cls-1"
     d="M 83.92,220.09 H 6.21 A 6.21,6.21 0 0 1 0,213.88 v -77.71 a 6.21,6.21 0 0 1 6.21,-6.2 h 77.71 a 6.21,6.21 0 0 1 6.2,6.2 v 77.71 a 6.21,6.21 0 0 1 -6.2,6.21 z"
     id="path248" />
  <path
     class="cls-1"
     d="M 83.92,350.03 H 6.21 A 6.21,6.21 0 0 1 0,343.82 v -77.68 a 6.21,6.21 0 0 1 6.21,-6.2 h 77.71 a 6.21,6.21 0 0 1 6.2,6.2 v 77.71 a 6.21,6.21 0 0 1 -6.2,6.18 z"
     id="path250" />
  <path
     class="cls-1"
     d="M 83.92,90.12 H 6.21 A 6.21,6.21 0 0 1 0,83.92 V 6.2 A 6.21,6.21 0 0 1 6.21,0 h 77.71 a 6.21,6.21 0 0 1 6.2,6.2 v 77.72 a 6.21,6.21 0 0 1 -6.2,6.2 z"
     id="path252" />
  <path
     class="cls-1"
     d="m 136.18,129.97 h 61.27 v 90.12 h -61.3 a 6.19,6.19 0 0 1 -6.2,-6.2 v -77.72 a 6.19,6.19 0 0 1 6.23,-6.2 z"
     id="path254" />
  <path
     class="cls-1"
     d="m 355.09,136.17 v 77.72 a 6.2,6.2 0 0 1 -6.2,6.2 h -61.3 v -90.12 h 61.3 a 6.2,6.2 0 0 1 6.2,6.2 z"
     id="path256" />
  <path
     class="cls-1"
     d="m 355.09,266.15 v 77.71 a 6.21,6.21 0 0 1 -6.2,6.2 H 129.98 v -90.12 h 218.91 a 6.21,6.21 0 0 1 6.2,6.21 z"
     id="path258" />
  <path
     class="cls-1"
     d="M 355.09,0.03 V 90.14 H 136.18 a 6.19,6.19 0 0 1 -6.2,-6.2 V 6.2 a 6.2,6.2 0 0 1 6.2,-6.2 z"
     id="path260" />
  <path
     class="cls-2"
     d="m 355.09,0.03 v 90.11 h -8.64 a 58.91,58.91 0 0 0 -58.9,58.9 v 43.43 A 157.61,157.61 0 0 1 129.98,350.03 v -90.09 h 8.6 a 58.9,58.9 0 0 0 58.87,-58.91 V 157.62 A 157.61,157.61 0 0 1 355.09,0.03 Z"
     id="path262" />
  <g
     aria-label="listshuffler."
     id="text975"
     style="font-size:173.333px;line-height:1.25;fill:#37383a"
     transform="translate(-439.55,-324.97)">
    <path
       d="M 917.4455,561.0116 V 438.6385 l -9.53331,1.73333 V 561.0116 Z"
       style="font-weight:200;font-family:Catamaran;-inkscape-font-specification:'Catamaran Ultra-Light'"
       id="path304" />
    <path
       d="m 952.2746,561.0116 v -84.0665 h -9.53332 v 84.0665 z m -4.85333,-103.30647 q 3.12,0 5.19999,-2.07999 2.25333,-2.08 2.25333,-5.19999 0,-3.12 -2.25333,-5.19999 -2.25333,-2.08 -5.19999,-2.08 -3.29332,0 -5.37332,2.08 -1.90666,2.07999 -1.90666,5.19999 0,3.11999 1.90666,5.19999 2.08,2.07999 5.37332,2.07999 z"
       style="font-weight:200;font-family:Catamaran;-inkscape-font-specification:'Catamaran Ultra-Light'"
       id="path306" />
    <path
       d="m 971.41164,556.67827 q 3.29333,2.08 7.79998,3.63999 4.67999,1.38667 9.53332,2.08 4.85332,0.86667 8.31998,0.86667 16.11998,0 23.91998,-6.23999 7.9733,-6.23999 7.9733,-17.3333 0,-6.41332 -3.8133,-11.09331 -3.8134,-4.67999 -9.88,-8.14665 -6.0667,-3.64 -13,-6.23999 -8.66664,-3.12 -15.07996,-7.10665 -6.23999,-3.98666 -6.23999,-9.87998 0,-6.06666 5.37333,-10.39998 5.54665,-4.33333 14.38662,-4.33333 7.8,0 13,2.08 5.3733,2.07999 8.84,3.81332 l 3.4666,-6.75998 q -2.7733,-2.08 -7.28,-3.64 -4.3333,-1.55999 -9.0133,-2.42666 -4.5066,-0.86666 -8.1466,-0.86666 -14.21333,0 -22.01331,6.41332 -7.79999,6.41332 -7.79999,16.8133 0,5.89332 3.64,10.57331 3.81332,4.50666 9.70664,7.79998 5.89333,3.12 12.30665,5.54666 6.24001,2.25333 11.26661,5.02666 5.2,2.59999 8.1467,6.06665 3.12,3.29333 3.12,7.45332 0,4.67999 -2.7734,8.14665 -2.7733,3.29333 -7.7999,5.19999 -5.0267,1.73333 -11.96001,1.73333 -4.33333,0 -8.49332,-0.86666 -3.98666,-1.04 -7.62665,-2.42667 -3.63999,-1.55999 -6.75999,-2.94666 z"
       style="font-weight:200;font-family:Catamaran;-inkscape-font-specification:'Catamaran Ultra-Light'"
       id="path308" />
    <path
       d="m 1076.1237,479.19842 h -15.2533 v -26.17328 l -9.5333,3.81333 v 22.35995 h -12.48 v 7.10666 h 12.48 v 54.59989 q 0,7.27999 2.2533,12.30664 2.4267,4.85333 6.76,7.45332 4.3334,2.6 10.0533,2.6 2.2534,0 4.3334,-0.34667 2.2533,-0.34667 3.9866,-0.86667 1.9067,-0.51999 3.12,-0.86666 l -2.08,-7.62665 q -0.8666,0.34666 -3.12,1.04 -2.08,0.51999 -3.9866,0.51999 -6.4133,0 -9.1867,-4.50665 -2.6,-4.67999 -2.6,-10.91998 v -53.38656 h 18.8933 z"
       style="font-weight:200;font-family:Catamaran;-inkscape-font-specification:'Catamaran Ultra-Light'"
       id="path310" />
    <path
       d="m 1093.9635,556.67827 q 3.2933,2.08 7.8,3.63999 4.68,1.38667 9.5333,2.08 4.8533,0.86667 8.32,0.86667 16.1199,0 23.9199,-6.23999 7.9733,-6.23999 7.9733,-17.3333 0,-6.41332 -3.8133,-11.09331 -3.8133,-4.67999 -9.88,-8.14665 -6.0666,-3.64 -12.9999,-6.23999 -8.6667,-3.12 -15.08,-7.10665 -6.24,-3.98666 -6.24,-9.87998 0,-6.06666 5.3733,-10.39998 5.5467,-4.33333 14.3867,-4.33333 7.7999,0 12.9999,2.08 5.3734,2.07999 8.84,3.81332 l 3.4667,-6.75998 q -2.7733,-2.08 -7.28,-3.64 -4.3333,-1.55999 -9.0133,-2.42666 -4.5067,-0.86666 -8.1467,-0.86666 -14.2133,0 -22.0133,6.41332 -7.7999,6.41332 -7.7999,16.8133 0,5.89332 3.6399,10.57331 3.8134,4.50666 9.7067,7.79998 5.8933,3.12 12.3066,5.54666 6.24,2.25333 11.2667,5.02666 5.2,2.59999 8.1466,6.06665 3.12,3.29333 3.12,7.45332 0,4.67999 -2.7733,8.14665 -2.7733,3.29333 -7.8,5.19999 -5.0266,1.73333 -11.96,1.73333 -4.3333,0 -8.4933,-0.86666 -3.9866,-1.04 -7.6266,-2.42667 -3.64,-1.55999 -6.76,-2.94666 z"
       style="font-weight:200;font-family:Catamaran;-inkscape-font-specification:'Catamaran Ultra-Light';fill:#349999"
       id="path312" />
    <path
       d="m 1181.1689,499.82505 q 4.3334,-5.02666 9.5334,-8.83998 5.2,-3.81333 10.3999,-5.89332 5.3734,-2.25333 10.0534,-2.25333 9.3599,0 12.6533,6.06665 3.4666,6.06666 3.4666,14.73331 v 57.37322 h 9.5333 v -58.41322 q 0,-8.14665 -2.6,-14.38664 -2.5999,-6.23999 -8.3199,-9.87998 -5.5467,-3.63999 -14.56,-3.63999 -5.2,0 -10.92,2.07999 -5.5466,2.08 -10.7466,5.54666 -5.0267,3.46666 -8.6667,7.62665 z m 0,61.18655 V 438.6385 l -9.5333,1.73333 V 561.0116 Z"
       style="font-weight:200;font-family:Catamaran;-inkscape-font-specification:'Catamaran Ultra-Light'"
       id="path314" />
    <path
       d="m 1314.5622,476.9451 v 61.18654 q -4.5066,4.85333 -9.7066,8.83998 -5.2,3.81333 -10.5733,6.06666 -5.2,2.07999 -9.88,2.07999 -9.36,0 -12.6533,-6.06665 -3.2934,-6.06665 -3.2934,-14.7333 V 476.9451 h -9.5333 v 58.41321 q 0,7.97332 2.4267,14.38664 2.6,6.23999 8.1466,9.87998 5.72,3.64 14.7333,3.64 5.2,0 10.92,-2.08 5.72,-2.08 10.92,-5.54666 5.2,-3.63999 8.6666,-7.79998 l 1.7334,13.17331 h 7.6266 v -84.0665 z"
       style="font-weight:200;font-family:Catamaran;-inkscape-font-specification:'Catamaran Ultra-Light'"
       id="path316" />
    <path
       d="m 1339.143,486.30508 h 12.6533 v 74.70652 h 9.5333 v -74.70652 h 18.8933 l -3.64,-7.10666 h -15.2533 v -17.3333 q 0,-6.23998 2.6,-10.22664 2.7733,-3.98666 9.36,-3.98666 1.7333,0 3.8133,0.52 2.2534,0.52 3.2933,1.04 l 2.08,-7.62666 q -1.04,-0.51999 -2.9466,-1.03999 -1.7333,-0.52 -3.9867,-0.86667 -2.08,-0.34666 -4.5066,-0.34666 -6.24,0 -10.5733,2.94666 -4.3334,2.94666 -6.5867,8.49331 -2.08,5.37333 -2.08,12.65331 v 15.7733 h -12.6533 z"
       style="font-weight:200;font-family:Catamaran;-inkscape-font-specification:'Catamaran Ultra-Light'"
       id="path318" />
    <path
       d="m 1385.8617,486.30508 h 12.6533 v 74.70652 h 9.5333 v -74.70652 h 18.8933 l -3.64,-7.10666 h -15.2533 v -17.3333 q 0,-6.23998 2.6,-10.22664 2.7733,-3.98666 9.36,-3.98666 1.7333,0 3.8133,0.52 2.2533,0.52 3.2933,1.04 l 2.08,-7.62666 q -1.04,-0.51999 -2.9467,-1.03999 -1.7333,-0.52 -3.9866,-0.86667 -2.08,-0.34666 -4.5067,-0.34666 -6.24,0 -10.5733,2.94666 -4.3333,2.94666 -6.5866,8.49331 -2.08,5.37333 -2.08,12.65331 v 15.7733 h -12.6533 z"
       style="font-weight:200;font-family:Catamaran;-inkscape-font-specification:'Catamaran Ultra-Light'"
       id="path320" />
    <path
       d="M 1452.3403,561.0116 V 438.6385 l -9.5333,1.73333 V 561.0116 Z"
       style="font-weight:200;font-family:Catamaran;-inkscape-font-specification:'Catamaran Ultra-Light'"
       id="path322" />
    <path
       d="m 1543.5026,519.23835 v -1.04 q 0,-12.47998 -3.9867,-22.35996 -3.9866,-9.87998 -11.4399,-15.42663 -7.4533,-5.71999 -18.3733,-5.71999 -12.3067,0 -20.6267,5.71999 -8.3199,5.71998 -12.4799,15.59996 -4.16,9.87999 -4.16,22.53329 0,12.99998 4.3333,23.22662 4.5067,10.05332 13.52,15.77331 9.1866,5.71999 23.2266,5.71999 4.8533,0 9.88,-1.04 5.0266,-0.86667 9.7066,-2.42666 4.8534,-1.73333 8.4933,-3.81333 l -3.4666,-7.10665 q -5.3733,2.77333 -11.44,4.67999 -5.8933,1.90666 -14.2133,1.90666 -10.7466,0 -17.5066,-4.85332 -6.5867,-4.85333 -9.7067,-12.99998 -2.9466,-8.31998 -3.12,-18.37329 z m -61.0132,-6.75999 q 0.8667,-8.31998 3.8133,-15.07997 3.12,-6.75999 8.6667,-10.74665 5.5466,-3.98666 13.8666,-3.98666 8.32,0 13.52,3.98666 5.2,3.98666 7.8,10.74665 2.7733,6.75999 3.4666,15.07997 z"
       style="font-weight:200;font-family:Catamaran;-inkscape-font-specification:'Catamaran Ultra-Light'"
       id="path324" />
    <path
       d="m 1571.4661,561.0116 v -61.01322 q 3.2933,-3.63999 8.1466,-7.10665 5.0267,-3.63999 10.7467,-6.06665 5.8933,-2.42667 11.0933,-2.42667 l -2.9467,-7.45331 q -4.3333,0 -9.7066,2.25332 -5.2,2.25333 -10.0533,5.37333 -4.68,3.11999 -7.8,5.71999 l -3.12,-13.34664 h -5.8933 v 84.0665 z"
       style="font-weight:200;font-family:Catamaran;-inkscape-font-specification:'Catamaran Ultra-Light'"
       id="path326" />
    <path
       d="m 1615.0837,561.0116 q 2.7733,0 4.68,-1.90667 2.08,-1.90666 2.08,-4.67999 0,-2.77332 -2.08,-4.67999 -1.9067,-1.90666 -4.68,-1.90666 -2.9467,0 -4.8533,1.90666 -1.7334,1.90667 -1.7334,4.67999 0,2.77333 1.7334,4.67999 1.9066,1.90667 4.8533,1.90667 z"
       style="font-weight:100;font-family:Catamaran;-inkscape-font-specification:'Catamaran Thin'"
       id="path328" />
  </g>
  <text
     xmlSpace="preserve"
     id="text11033"
     style="font-style:normal;font-weight:normal;font-size:40px;line-height:1.25;font-family:sans-serif;white-space:pre;shape-inside:url(#rect11035);fill:#000000;fill-opacity:1;stroke:none"
     xml:space="preserve"
     transform="translate(-439.55,-324.97)" />
</svg>
