<?xml version="1.0" encoding="UTF-8" standalone="no"?>
<svg
   id="Layer_1"
   data-name="Layer 1"
   viewBox="0 0 1183.3732 350.06"
   version="1.1"
   xmlnsSvg="http://www.w3.org/2000/svg"
   width="1183.3732"
   height="350.06"
   xmlns="http://www.w3.org/2000/svg">
  <defs
     id="defs177">
    <style
       id="style175">.cls-1{fill:#d6d9db;}.cls-2{fill:#349999;}</style>
  </defs>
  <path
     class="cls-1"
     d="M 83.92,220.09 H 6.21 A 6.21,6.21 0 0 1 0,213.89 v -77.71 a 6.21,6.21 0 0 1 6.21,-6.21 h 77.71 a 6.21,6.21 0 0 1 6.2,6.21 v 77.71 a 6.21,6.21 0 0 1 -6.2,6.2 z"
     id="path179" />
  <path
     class="cls-1"
     d="M 83.92,350.03 H 6.21 A 6.21,6.21 0 0 1 0,343.83 v -77.69 a 6.21,6.21 0 0 1 6.21,-6.2 h 77.71 a 6.21,6.21 0 0 1 6.2,6.2 v 77.72 a 6.21,6.21 0 0 1 -6.2,6.17 z"
     id="path181" />
  <path
     class="cls-1"
     d="M 83.92,90.12 H 6.21 A 6.21,6.21 0 0 1 0,83.92 V 6.2 A 6.21,6.21 0 0 1 6.21,0 h 77.71 a 6.21,6.21 0 0 1 6.2,6.2 v 77.72 a 6.21,6.21 0 0 1 -6.2,6.2 z"
     id="path183" />
  <path
     class="cls-1"
     d="m 136.18,129.97 h 61.27 v 90.12 h -61.3 a 6.19,6.19 0 0 1 -6.2,-6.2 v -77.72 a 6.19,6.19 0 0 1 6.23,-6.2 z"
     id="path185" />
  <path
     class="cls-1"
     d="m 355.09,136.17 v 77.72 a 6.2,6.2 0 0 1 -6.2,6.2 h -61.3 v -90.12 h 61.3 a 6.2,6.2 0 0 1 6.2,6.2 z"
     id="path187" />
  <path
     class="cls-1"
     d="m 355.09,266.15 v 77.71 a 6.21,6.21 0 0 1 -6.2,6.2 H 129.98 v -90.11 h 218.91 a 6.2,6.2 0 0 1 6.2,6.2 z"
     id="path189" />
  <path
     class="cls-1"
     d="M 355.09,0.03 V 90.15 H 136.18 a 6.2,6.2 0 0 1 -6.2,-6.21 V 6.2 a 6.2,6.2 0 0 1 6.2,-6.2 z"
     id="path191" />
  <path
     class="cls-2"
     d="m 355.09,0.03 v 90.12 h -8.64 a 58.9,58.9 0 0 0 -58.86,58.88 v 43.43 A 157.61,157.61 0 0 1 129.98,350.03 v -90.08 h 8.6 a 58.91,58.91 0 0 0 58.87,-58.92 V 157.62 A 157.61,157.61 0 0 1 355.09,0.03 Z"
     id="path193" />
  <g
     aria-label="listshuffler."
     id="text975"
     style="font-size:173.333px;line-height:1.25;fill:#37383a"
     transform="translate(-439.55,-324.97)">
    <path
       d="M 918.52497,563.60602 V 441.23293 l -9.53332,1.73333 v 120.63976 z"
       style="font-weight:200;font-family:Catamaran;-inkscape-font-specification:'Catamaran Ultra-Light';fill:#d6d9db"
       id="path377" />
    <path
       d="m 953.35407,563.60602 v -84.0665 h -9.53332 v 84.0665 z m -4.85333,-103.30647 q 3.12,0 5.19999,-2.07999 2.25333,-2.08 2.25333,-5.19999 0,-3.12 -2.25333,-5.19999 -2.25333,-2.08 -5.19999,-2.08 -3.29333,0 -5.37332,2.08 -1.90666,2.07999 -1.90666,5.19999 0,3.11999 1.90666,5.19999 2.07999,2.07999 5.37332,2.07999 z"
       style="font-weight:200;font-family:Catamaran;-inkscape-font-specification:'Catamaran Ultra-Light';fill:#d6d9db"
       id="path379" />
    <path
       d="m 972.49111,559.27269 q 3.29332,2.08 7.79998,3.64 4.67999,1.38666 9.53332,2.07999 4.85332,0.86667 8.31998,0.86667 16.12001,0 23.91991,-6.23999 7.9734,-6.23999 7.9734,-17.3333 0,-6.41332 -3.8134,-11.09331 -3.8133,-4.67999 -9.8799,-8.14665 -6.0667,-3.64 -13,-6.23999 -8.66667,-3.11999 -15.07999,-7.10665 -6.23999,-3.98666 -6.23999,-9.87998 0,-6.06666 5.37332,-10.39998 5.54666,-4.33333 14.38666,-4.33333 7.8,0 13,2.08 5.3733,2.07999 8.8399,3.81332 l 3.4667,-6.75998 q -2.7733,-2.08 -7.28,-3.64 -4.3333,-1.55999 -9.0133,-2.42666 -4.5067,-0.86666 -8.1467,-0.86666 -14.21326,0 -22.01324,6.41332 -7.79999,6.41332 -7.79999,16.8133 0,5.89332 3.64,10.57331 3.81332,4.50666 9.70664,7.79999 5.89332,3.11999 12.30665,5.54665 6.23994,2.25333 11.26664,5.02666 5.2,2.59999 8.1467,6.06665 3.1199,3.29333 3.1199,7.45332 0,4.67999 -2.7733,8.14665 -2.7733,3.29333 -7.8,5.19999 -5.0266,1.73333 -11.95994,1.73333 -4.33333,0 -8.49332,-0.86666 -3.98666,-1.04 -7.62665,-2.42666 -3.64,-1.56 -6.75999,-2.94667 z"
       style="font-weight:200;font-family:Catamaran;-inkscape-font-specification:'Catamaran Ultra-Light';fill:#d6d9db"
       id="path381" />
    <path
       d="m 1077.2032,481.79285 h -15.2533 v -26.17329 l -9.5333,3.81333 v 22.35996 h -12.48 v 7.10665 h 12.48 v 54.59989 q 0,7.27999 2.2533,12.30664 2.4267,4.85333 6.76,7.45332 4.3333,2.6 10.0533,2.6 2.2533,0 4.3333,-0.34667 2.2534,-0.34667 3.9867,-0.86666 1.9067,-0.52 3.12,-0.86667 l -2.08,-7.62665 q -0.8667,0.34667 -3.12,1.04 -2.08,0.52 -3.9867,0.52 -6.4133,0 -9.1866,-4.50666 -2.6,-4.67999 -2.6,-10.91998 V 488.8995 h 18.8933 z"
       style="font-weight:200;font-family:Catamaran;-inkscape-font-specification:'Catamaran Ultra-Light';fill:#d6d9db"
       id="path383" />
    <path
       d="m 1095.043,559.27269 q 3.2933,2.08 7.7999,3.64 4.68,1.38666 9.5334,2.07999 4.8533,0.86667 8.3199,0.86667 16.12,0 23.92,-6.23999 7.9733,-6.23999 7.9733,-17.3333 0,-6.41332 -3.8133,-11.09331 -3.8133,-4.67999 -9.88,-8.14665 -6.0667,-3.64 -13,-6.23999 -8.6666,-3.11999 -15.0799,-7.10665 -6.24,-3.98666 -6.24,-9.87998 0,-6.06666 5.3733,-10.39998 5.5466,-4.33333 14.3866,-4.33333 7.8,0 13,2.08 5.3733,2.07999 8.84,3.81332 l 3.4666,-6.75998 q -2.7733,-2.08 -7.2799,-3.64 -4.3334,-1.55999 -9.0134,-2.42666 -4.5066,-0.86666 -8.1466,-0.86666 -14.2133,0 -22.0133,6.41332 -7.8,6.41332 -7.8,16.8133 0,5.89332 3.64,10.57331 3.8133,4.50666 9.7067,7.79999 5.8933,3.11999 12.3066,5.54665 6.24,2.25333 11.2666,5.02666 5.2,2.59999 8.1467,6.06665 3.12,3.29333 3.12,7.45332 0,4.67999 -2.7733,8.14665 -2.7734,3.29333 -7.8,5.19999 -5.0267,1.73333 -11.96,1.73333 -4.3333,0 -8.4933,-0.86666 -3.9867,-1.04 -7.6267,-2.42666 -3.64,-1.56 -6.76,-2.94667 z"
       style="font-weight:200;font-family:Catamaran;-inkscape-font-specification:'Catamaran Ultra-Light';fill:#349999"
       id="path385" />
    <path
       d="m 1182.2484,502.41947 q 4.3333,-5.02666 9.5333,-8.83998 5.2,-3.81333 10.4,-5.89332 5.3733,-2.25333 10.0533,-2.25333 9.36,0 12.6533,6.06665 3.4667,6.06666 3.4667,14.73331 v 57.37322 h 9.5333 V 505.1928 q 0,-8.14665 -2.6,-14.38664 -2.6,-6.23999 -8.32,-9.87998 -5.5466,-3.63999 -14.5599,-3.63999 -5.2,0 -10.92,2.07999 -5.5467,2.08 -10.7467,5.54666 -5.0266,3.46666 -8.6666,7.62665 z m 0,61.18655 V 441.23293 l -9.5333,1.73333 v 120.63976 z"
       style="font-weight:200;font-family:Catamaran;-inkscape-font-specification:'Catamaran Ultra-Light';fill:#d6d9db"
       id="path387" />
    <path
       d="m 1315.6417,479.53952 v 61.18654 q -4.5067,4.85333 -9.7067,8.83999 -5.2,3.81332 -10.5733,6.06665 -5.2,2.08 -9.88,2.08 -9.3599,0 -12.6533,-6.06666 -3.2933,-6.06665 -3.2933,-14.7333 v -57.37322 h -9.5333 v 58.41322 q 0,7.97331 2.4267,14.38663 2.5999,6.23999 8.1466,9.87998 5.72,3.64 14.7333,3.64 5.2,0 10.92,-2.08 5.72,-2.07999 10.92,-5.54665 5.2,-3.64 8.6666,-7.79999 l 1.7333,13.17331 h 7.6267 v -84.0665 z"
       style="font-weight:200;font-family:Catamaran;-inkscape-font-specification:'Catamaran Ultra-Light';fill:#d6d9db"
       id="path389" />
    <path
       d="m 1340.2225,488.8995 h 12.6533 v 74.70652 h 9.5333 V 488.8995 h 18.8933 l -3.64,-7.10665 h -15.2533 v -17.3333 q 0,-6.23999 2.6,-10.22665 2.7733,-3.98666 9.36,-3.98666 1.7333,0 3.8133,0.52 2.2533,0.52 3.2933,1.04 l 2.08,-7.62665 q -1.04,-0.52 -2.9466,-1.04 -1.7334,-0.52 -3.9867,-0.86667 -2.08,-0.34666 -4.5067,-0.34666 -6.24,0 -10.5733,2.94666 -4.3333,2.94666 -6.5866,8.49331 -2.08,5.37333 -2.08,12.65331 v 15.77331 h -12.6533 z"
       style="font-weight:200;font-family:Catamaran;-inkscape-font-specification:'Catamaran Ultra-Light';fill:#d6d9db"
       id="path391" />
    <path
       d="m 1386.9411,488.8995 h 12.6533 v 74.70652 h 9.5333 V 488.8995 h 18.8933 l -3.64,-7.10665 h -15.2533 v -17.3333 q 0,-6.23999 2.6,-10.22665 2.7734,-3.98666 9.36,-3.98666 1.7334,0 3.8133,0.52 2.2534,0.52 3.2934,1.04 l 2.08,-7.62665 q -1.04,-0.52 -2.9467,-1.04 -1.7333,-0.52 -3.9866,-0.86667 -2.08,-0.34666 -4.5067,-0.34666 -6.24,0 -10.5733,2.94666 -4.3333,2.94666 -6.5867,8.49331 -2.08,5.37333 -2.08,12.65331 v 15.77331 h -12.6533 z"
       style="font-weight:200;font-family:Catamaran;-inkscape-font-specification:'Catamaran Ultra-Light';fill:#d6d9db"
       id="path393" />
    <path
       d="M 1453.4197,563.60602 V 441.23293 l -9.5333,1.73333 v 120.63976 z"
       style="font-weight:200;font-family:Catamaran;-inkscape-font-specification:'Catamaran Ultra-Light';fill:#d6d9db"
       id="path395" />
    <path
       d="m 1544.5821,521.83277 v -1.04 q 0,-12.47998 -3.9867,-22.35996 -3.9866,-9.87998 -11.44,-15.42663 -7.4533,-5.71999 -18.3733,-5.71999 -12.3066,0 -20.6266,5.71999 -8.32,5.71999 -12.48,15.59997 -4.16,9.87998 -4.16,22.53328 0,12.99998 4.3334,23.22663 4.5066,10.05331 13.5199,15.7733 9.1867,5.71999 23.2267,5.71999 4.8533,0 9.8799,-1.04 5.0267,-0.86667 9.7067,-2.42666 4.8533,-1.73333 8.4933,-3.81333 l -3.4666,-7.10665 q -5.3734,2.77333 -11.44,4.67999 -5.8933,1.90666 -14.2133,1.90666 -10.7467,0 -17.5067,-4.85332 -6.5866,-4.85333 -9.7066,-12.99998 -2.9467,-8.31998 -3.12,-18.37329 z m -61.0132,-6.75999 q 0.8666,-8.31998 3.8133,-15.07997 3.12,-6.75999 8.6666,-10.74665 5.5467,-3.98665 13.8667,-3.98665 8.32,0 13.5199,3.98665 5.2,3.98666 7.8,10.74665 2.7734,6.75999 3.4667,15.07997 z"
       style="font-weight:200;font-family:Catamaran;-inkscape-font-specification:'Catamaran Ultra-Light';fill:#d6d9db"
       id="path397" />
    <path
       d="M 1572.5455,563.60602 V 502.5928 q 3.2934,-3.63999 8.1467,-7.10665 5.0267,-3.63999 10.7466,-6.06665 5.8934,-2.42666 11.0934,-2.42666 l -2.9467,-7.45332 q -4.3333,0 -9.7067,2.25333 -5.1999,2.25332 -10.0533,5.37332 -4.68,3.11999 -7.8,5.71999 l -3.1199,-13.34664 h -5.8934 v 84.0665 z"
       style="font-weight:200;font-family:Catamaran;-inkscape-font-specification:'Catamaran Ultra-Light';fill:#d6d9db"
       id="path399" />
    <path
       d="m 1616.1632,563.60602 q 2.7733,0 4.68,-1.90666 2.08,-1.90667 2.08,-4.68 0,-2.77332 -2.08,-4.67999 -1.9067,-1.90666 -4.68,-1.90666 -2.9467,0 -4.8534,1.90666 -1.7333,1.90667 -1.7333,4.67999 0,2.77333 1.7333,4.68 1.9067,1.90666 4.8534,1.90666 z"
       style="fill:#d6d9db"
       id="path401" />
  </g>
</svg>
